<?xml version="1.0" encoding="utf-8"?>
<!-- Generator: Adobe Illustrator 16.0.3, SVG Export Plug-In . SVG Version: 6.00 Build 0)  -->
<!DOCTYPE svg PUBLIC "-//W3C//DTD SVG 1.1//EN" "http://www.w3.org/Graphics/SVG/1.1/DTD/svg11.dtd">
<svg version="1.1" id="Layer_1" xmlns="http://www.w3.org/2000/svg" xmlns:xlink="http://www.w3.org/1999/xlink" x="0px" y="0px"
	 width="299px" height="283px" viewBox="0 0 299 283" enable-background="new 0 0 299 283" xml:space="preserve">
<g>
	<path fill="#C22026" d="M181.766,122.922c0,17.789-14.472,32.265-32.265,32.265c-17.789,0-32.266-14.476-32.266-32.265
		c0-13.259,8.316-25.36,20.688-30.118c2.062-0.793,4.378,0.234,5.171,2.297s-0.238,4.375-2.297,5.168
		c-9.308,3.582-15.562,12.684-15.562,22.653c0,13.378,10.887,24.265,24.266,24.265c13.382,0,24.265-10.887,24.265-24.265
		c0-9.724-5.777-18.481-14.719-22.313c-2.031-0.867-2.972-3.219-2.101-5.25s3.219-2.973,5.25-2.101
		C174.087,98.351,181.766,109.991,181.766,122.922L181.766,122.922z M149.876,119.961c2.207,0,4-1.793,4-4V87.562
		c0-2.211-1.793-4-4-4c-2.211,0-4,1.789-4,4v28.399C145.876,118.168,147.665,119.961,149.876,119.961L149.876,119.961z
		 M149.876,119.961"/>
</g>
<g>
	<path fill="#C22026" d="M123.51,174.807c-1.239,0-1.847-0.496-2.231-1.144l0.616-0.384c0.304,0.496,0.76,0.888,1.623,0.888
		c0.608,0,1.359-0.248,1.359-1c0-0.608-0.488-0.904-1.416-1.096c-1.455-0.304-2.055-0.688-2.055-1.695
		c0-0.968,0.688-1.623,2.039-1.623c1.039,0,1.639,0.424,2.023,1.039l-0.6,0.4c-0.304-0.496-0.735-0.799-1.431-0.799
		c-0.815,0-1.279,0.384-1.279,0.959c0,0.536,0.408,0.759,1.479,0.991c1.183,0.256,1.999,0.632,1.999,1.775
		C125.636,174.351,124.669,174.807,123.51,174.807z"/>
	<path fill="#C22026" d="M132.654,169.529v5.157h-0.744v-5.157h-1.847v-0.656h4.438v0.656H132.654z"/>
	<path fill="#C22026" d="M142.469,174.687l-0.56-1.623h-2.382l-0.56,1.623h-0.759l2.039-5.813h0.968l2.039,5.813H142.469z
		 M140.709,169.585l-0.967,2.822h1.935L140.709,169.585z"/>
	<path fill="#C22026" d="M151.46,174.687l-2.774-5.109v5.109h-0.711v-5.813h1.111l2.542,4.662v-4.662h0.712v5.813H151.46z"/>
	<path fill="#C22026" d="M159.286,174.687h-1.663v-5.813h1.647c2.063,0,3.03,0.72,3.03,2.911
		C162.3,174.071,161.292,174.687,159.286,174.687z M159.246,169.529h-0.879v4.501h0.879c1.663,0,2.271-0.567,2.271-2.254
		C161.517,170.049,160.877,169.529,159.246,169.529z"/>
	<path fill="#C22026" d="M169.261,174.687h-1.903v-5.813h1.727c1.559,0,2.063,0.432,2.063,1.328c0,0.751-0.376,1.135-0.904,1.311
		c0.752,0.088,1.288,0.536,1.288,1.431C171.532,174.167,170.741,174.687,169.261,174.687z M169.045,169.513h-0.943v1.799h0.896
		c0.959,0,1.383-0.304,1.383-0.952C170.381,169.649,169.949,169.513,169.045,169.513z M169.142,171.952h-1.04v2.079h0.839
		c1.007,0,1.807-0.088,1.807-1.055C170.749,172.096,170.189,171.952,169.142,171.952z"/>
	<path fill="#C22026" d="M178.413,172.328v2.359h-0.744v-2.327l-2.015-3.486h0.839l1.559,2.767l1.575-2.767h0.8L178.413,172.328z"/>
</g>
</svg>
