<?xml version="1.0" encoding="utf-8"?>
<!-- Generator: Adobe Illustrator 16.0.3, SVG Export Plug-In . SVG Version: 6.00 Build 0)  -->
<!DOCTYPE svg PUBLIC "-//W3C//DTD SVG 1.1//EN" "http://www.w3.org/Graphics/SVG/1.1/DTD/svg11.dtd">
<svg version="1.1" id="Capa_1" xmlns="http://www.w3.org/2000/svg" xmlns:xlink="http://www.w3.org/1999/xlink" x="0px" y="0px"
	 width="137.609px" height="568.609px" viewBox="0 0 137.609 568.609" enable-background="new 0 0 137.609 568.609"
	 xml:space="preserve">
<g>
	<path fill="#C30F10" d="M89.069,458.798V99.085c-22.794,14.275-23.545-15.027-42.077,0v359.713
		c-15.069,7.689-25.419,23.354-25.419,41.399c0,25.619,20.841,46.459,46.458,46.459s46.458-20.842,46.458-46.459
		C114.489,482.152,104.14,466.487,89.069,458.798z M87.249,506.543c-6.486,0-11.746-5.26-11.746-11.746s5.254-11.745,11.746-11.745
		c6.484,0,11.745,5.259,11.745,11.745S93.733,506.543,87.249,506.543z"/>
	<path d="M107.103,448.284V32.126c0-17.973-13.435-29.135-35.063-29.135h-6.509C43.656,2.991,28.96,14.7,28.96,32.126v416.158
		c-15.738,11.873-25.93,30.725-25.93,51.914c0,35.841,29.159,65,65.001,65c35.843,0,65.002-29.159,65.002-65
		C133.033,479.009,122.841,460.157,107.103,448.284z M68.031,558.914c-32.428,0-58.716-26.287-58.716-58.715
		c0-17.424,7.591-33.071,19.645-43.824c1.898-1.693,3.903-3.266,6.01-4.703V32.126c0-17.071,16.458-23.124,30.554-23.124h6.51
		c6.816,0,29.057,1.665,29.057,23.124v419.545c2.106,1.438,4.113,3.011,6.01,4.704c12.053,10.752,19.645,26.4,19.645,43.823
		C126.747,532.626,100.46,558.914,68.031,558.914z"/>
</g>
</svg>
